HIERARCHY
ROOT hip
{
	OFFSET 0.000000 0.000000 0.000000 
	CHANNELS 6 Xposition Yposition Zposition Xrotation Zrotation Yrotation
	JOINT abdomen
	{
		OFFSET 0.000000 3.402643 0.000000 
		CHANNELS 3 Xrotation Zrotation Yrotation
		JOINT chest
		{
			OFFSET 0.000000 8.438565 -0.680529 
			CHANNELS 3 Xrotation Zrotation Yrotation
			JOINT neck
			{
				OFFSET 0.000000 10.207942 -0.272212 
				CHANNELS 3 Xrotation Zrotation Yrotation
				JOINT head
				{
					OFFSET 0.000000 3.130431 0.000000 
					CHANNELS 3 Xrotation Zrotation Yrotation
					End Site
					{
						OFFSET 0.000000 3.130435 0.000000 
					}
				}
			}
			JOINT lCollar
			{
				OFFSET 3.470700 6.669187 -0.816635 
				CHANNELS 3 Zrotation Yrotation Xrotation
				JOINT lShldr
				{
					OFFSET 3.198488 0.000000 0.000000 
					CHANNELS 3 Zrotation Yrotation Xrotation
					JOINT lForeArm
					{
						OFFSET 10.139888 0.000000 0.000000 
						CHANNELS 3 Yrotation Zrotation Xrotation
						JOINT lHand
						{
							OFFSET 8.370511 0.000000 0.000000 
							CHANNELS 3 Zrotation Yrotation Xrotation
							End Site
							{
								OFFSET 4.083176 0.000000 0.000000 
							}
						}
					}
				}
			}
			JOINT rCollar
			{
				OFFSET -3.470700 6.669187 -0.816635 
				CHANNELS 3 Zrotation Yrotation Xrotation
				JOINT rShldr
				{
					OFFSET -3.198488 0.000000 0.000000 
					CHANNELS 3 Zrotation Yrotation Xrotation
					JOINT rForeArm
					{
						OFFSET -10.139888 0.000000 0.000000 
						CHANNELS 3 Yrotation Zrotation Xrotation
						JOINT rHand
						{
							OFFSET -8.370511 0.000000 0.000000 
							CHANNELS 3 Zrotation Yrotation Xrotation
							End Site
							{
								OFFSET -4.083176 0.000000 0.000000 
							}
						}
					}
				}
			}
		}
	}
	JOINT lThigh
	{
		OFFSET 5.308129 -1.633274 1.361059 
		CHANNELS 3 Xrotation Zrotation Yrotation
		JOINT lShin
		{
			OFFSET -2.041588 -20.007561 0.000000 
			CHANNELS 3 Xrotation Zrotation Yrotation
			JOINT lFoot
			{
				OFFSET 0.000000 -19.190928 -1.224953 
				CHANNELS 3 Xrotation Yrotation Zrotation
				End Site
				{
					OFFSET 0.000000 -2.449906 4.627600 
				}
			}
		}
	}
	JOINT rThigh
	{
		OFFSET -5.308129 -1.633274 1.361059 
		CHANNELS 3 Xrotation Zrotation Yrotation
		JOINT rShin
		{
			OFFSET 2.041588 -20.007561 0.000000 
			CHANNELS 3 Xrotation Zrotation Yrotation
			JOINT rFoot
			{
				OFFSET 0.000000 -19.190928 -1.224953 
				CHANNELS 3 Xrotation Yrotation Zrotation
				End Site
				{
					OFFSET 0.000000 -2.449906 4.627600 
				}
			}
		}
	}
}
MOTION
Frames: 16
Frame Time: 0.016667
3.824838 46.537922 -114.065643 17.514534 4.231863 -17.382513 61.243942 1.647821 -4.391453 11.278639 0.605379 -0.957079 -15.103025 6.947384 -2.250136 -23.553446 -7.455937 32.978710 5.414801 -22.691193 -1.844315 -30.264738 -51.948097 0.225879 -89.109962 5.000000 -0.689290 -5.826983 -6.141865 -45.000000 0.742353 16.582060 0.156752 90.179977 53.841187 45.867264 102.716164 -5.000000 9.267713 -1.075810 -16.163013 12.571470 -46.597038 15.368197 13.480444 89.046730 0.448661 -12.343138 -16.374527 5.565996 -5.617936 -57.902855 4.293958 13.146205 41.027927 9.996428 9.641880 -6.030320 -19.242882 -0.524730 
4.036482 46.598320 -114.560013 17.481808 4.583057 -17.508284 61.306316 1.523099 -4.411629 11.258925 0.576074 -1.044967 -15.201472 6.936240 -2.258256 -23.691521 -7.408450 33.153667 5.243876 -22.647514 -1.780446 -30.272707 -52.287342 0.495142 -89.063210 5.000000 -0.717246 -5.965387 -6.165363 -45.000000 0.966859 16.630964 0.214089 90.092598 53.862289 45.867031 102.858208 -5.000000 9.354548 -1.098037 -16.192043 12.660016 -44.806149 13.872046 13.466941 88.386971 0.291531 -11.799232 -16.854105 5.317077 -5.342723 -57.941067 4.117631 14.250437 39.415771 9.996489 9.244264 -5.158342 -19.700552 0.458203 
4.250237 46.642815 -115.059372 17.438179 4.868347 -17.643583 61.377090 1.409547 -4.392791 11.249233 0.546774 -1.084027 -15.249917 6.926591 -2.256796 -23.897295 -7.395309 33.310585 5.053026 -22.633419 -1.716472 -30.250563 -52.626244 0.749491 -88.996788 5.000000 -0.769065 -6.084601 -6.185307 -45.000000 1.191359 16.660378 0.268592 89.760551 53.868225 45.866962 102.987747 -5.000000 9.408112 -1.136222 -16.239300 12.790643 -43.031349 12.389531 13.278006 87.184334 0.019926 -11.236453 -18.252100 5.331968 -4.866362 -57.977520 3.974180 15.342495 37.800350 9.997394 8.818434 -4.193017 -20.112965 1.576818 
4.461693 46.666840 -115.566010 17.402174 5.125293 -17.778503 61.428223 1.292184 -4.365416 11.249269 0.517472 -1.142619 -15.308916 6.905799 -2.263456 -24.096344 -7.374790 33.456589 4.861870 -22.609392 -1.648081 -30.234600 -52.969471 1.007430 -88.911217 5.000000 -0.845390 -6.204333 -6.196076 -45.000000 1.415323 16.689854 0.316145 89.438477 53.883762 45.866768 103.103302 -5.000000 9.458277 -1.159598 -16.279345 12.906847 -41.323635 10.935373 12.945242 85.883018 -0.263516 -10.704432 -19.916044 5.347098 -4.364858 -57.972923 3.835346 16.397562 36.171375 9.996235 8.372880 -3.246160 -20.473515 2.619344 
4.669096 46.670071 -116.079041 17.391676 5.290942 -17.842150 61.397388 1.269426 -4.299225 11.288096 0.507699 -1.230508 -15.362907 6.820461 -2.240733 -24.203295 -7.290046 33.488968 4.638777 -22.576220 -1.573136 -30.198656 -53.287285 1.226105 -88.810242 5.000000 -0.970592 -6.302486 -6.169911 -45.000000 1.610490 16.699795 0.365101 89.164703 53.878883 45.866787 103.212646 -5.000000 9.529177 -1.183716 -16.309654 13.035581 -39.817223 9.547305 12.249026 84.009773 -0.575307 -10.317082 -23.355013 5.551650 -3.724269 -57.985111 3.758242 17.432745 34.487385 9.997107 7.865575 -2.335747 -20.831779 3.454825 
4.873183 46.655296 -116.599190 17.381016 5.428891 -17.895298 61.337585 1.239574 -4.215102 11.336578 0.507692 -1.308631 -15.417711 6.723977 -2.224980 -24.301027 -7.199648 33.491241 4.416108 -22.552496 -1.495393 -30.168392 -53.609432 1.448343 -88.708031 5.000000 -1.111565 -6.389802 -6.142954 -45.000000 1.796053 16.709753 0.414538 88.910194 53.863899 45.866901 103.325981 -5.000000 9.612158 -1.192896 -16.332865 13.149881 -38.350403 8.218758 11.426142 82.047340 -0.906898 -9.953367 -27.092083 5.733906 -3.063597 -57.993298 3.708798 18.416292 32.838131 9.992002 7.410270 -1.370338 -21.330774 4.171804 
5.072227 46.624039 -117.129364 17.363865 5.484950 -17.886505 61.266033 1.280718 -4.145291 11.424562 0.488158 -1.367224 -15.434232 6.646789 -2.213301 -24.394985 -7.128742 33.456184 4.221739 -22.547958 -1.419889 -30.137947 -53.904003 1.642971 -88.583572 5.000000 -1.240691 -6.508160 -6.117371 -45.000000 1.961374 16.709974 0.445409 88.674942 53.838802 45.867123 103.396599 -5.000000 9.667756 -1.184211 -16.349253 13.240376 -37.144520 6.990898 10.319160 80.050934 -1.229383 -9.678773 -31.253372 5.997352 -2.319616 -57.944073 3.678685 19.418680 31.139397 9.997806 6.894937 -0.753543 -21.644949 4.734972 
5.266674 46.576622 -117.667984 17.329672 5.458864 -17.827276 61.182682 1.388209 -4.061488 11.552314 0.439335 -1.396520 -15.430123 6.571095 -2.192030 -24.514423 -7.094346 33.374084 4.063387 -22.551516 -1.367528 -30.140579 -54.177212 1.840691 -88.437202 5.000000 -1.357963 -6.665666 -6.112296 -45.000000 2.107534 16.680882 0.477178 88.459457 53.823112 45.867241 103.451378 -5.000000 9.719166 -1.167007 -16.335783 13.292004 -36.196507 5.877427 8.916007 78.060623 -1.570518 -9.481601 -35.839157 6.254282 -1.489701 -57.848190 3.680290 20.346619 29.445469 9.991505 6.389032 -0.366399 -21.975819 5.064085 
5.459280 46.525570 -118.217773 17.299343 5.423749 -17.757408 61.079792 1.505856 -3.980321 11.680199 0.390515 -1.425750 -15.427527 6.503554 -2.180697 -24.633965 -7.059860 33.292000 3.915861 -22.564451 -1.315271 -30.127886 -54.457073 2.038028 -88.289116 5.000000 -1.475932 -6.813510 -6.104908 -45.000000 2.263798 16.671339 0.518260 88.244217 53.817200 45.867241 103.508194 -5.000000 9.772273 -1.155497 -16.321970 13.365134 -35.211414 4.803809 7.499976 76.057777 -1.892371 -9.301835 -40.492950 6.406111 -0.654904 -57.758087 3.688401 21.327427 27.767126 9.972590 5.863586 0.002093 -22.350863 5.363177 
5.650860 46.476173 -118.783073 17.221529 5.409548 -17.609802 61.017746 1.635861 -4.033764 11.808717 0.322174 -1.396463 -15.390922 6.371455 -2.141073 -24.616100 -6.999118 33.020390 3.801065 -22.615602 -1.282585 -30.117443 -54.693657 2.182168 -88.063736 5.000000 -1.664569 -6.936430 -6.046774 -45.000000 2.322029 16.612854 0.525016 88.067039 53.771523 45.867680 103.584328 -5.000000 9.803746 -1.181077 -16.378111 13.405336 -34.972706 3.855537 6.117943 74.709412 -2.038904 -9.027685 -42.905445 6.854662 0.001189 -57.513924 3.551160 22.094160 25.951773 9.685143 5.265689 -0.403041 -22.437843 5.369852 
5.841955 46.429047 -119.359444 17.134789 5.395569 -17.452478 60.945621 1.772705 -4.080594 11.937023 0.263596 -1.367173 -15.364225 6.239351 -2.100366 -24.590332 -6.936976 32.759655 3.686186 -22.666691 -1.245964 -30.111883 -54.934364 2.322341 -87.818108 5.000000 -1.870481 -7.056999 -5.990310 -45.000000 2.380267 16.554371 0.531770 87.880333 53.735783 45.860130 103.658096 -5.000000 9.826533 -1.217159 -16.422260 13.460891 -34.728691 2.938389 4.714697 73.389259 -2.224127 -8.789592 -45.297039 7.217013 0.642015 -57.278053 3.442861 22.845158 24.162207 9.371881 4.706351 -0.807002 -22.534410 5.343372 
6.034374 46.392517 -119.944756 17.015596 5.401023 -17.265997 60.913704 1.908088 -4.188795 12.036388 0.195258 -1.318351 -15.267235 6.079781 -2.045706 -24.545889 -6.902652 32.450603 3.571225 -22.717726 -1.209152 -30.161364 -55.147881 2.548979 -87.569016 5.000000 -2.088559 -7.194822 -5.979134 -45.000000 2.429938 16.505592 0.558528 87.692368 53.651230 45.860992 103.696136 -5.000000 9.828419 -1.214360 -16.452995 13.459509 -34.746334 2.088821 3.642315 72.393089 -2.321494 -8.474979 -46.525452 7.621827 1.322254 -56.898781 3.161288 23.285818 22.222630 9.027025 4.123918 -1.549943 -22.550966 5.275397 
6.227803 46.367615 -120.541771 16.862196 5.435561 -17.041561 60.902473 2.038460 -4.363486 12.115994 0.136683 -1.259762 -15.119654 5.892741 -1.977083 -24.458879 -6.887212 32.104046 3.456181 -22.768694 -1.172151 -30.270708 -55.325207 2.843384 -87.276169 5.000000 -2.362396 -7.338664 -6.014186 -45.000000 2.419355 16.466547 0.539418 87.494377 53.557076 45.861946 103.707420 -5.000000 9.808713 -1.186422 -16.448458 13.432947 -35.075886 1.328245 2.915409 71.768181 -2.324477 -8.144704 -46.555172 8.065749 2.005253 -56.375034 2.733324 23.417662 20.177830 8.635359 3.574950 -2.598235 -22.336275 5.233715 
6.424809 46.348492 -121.138084 16.695501 5.479148 -16.826849 60.891514 2.163150 -4.550735 12.195522 0.078106 -1.210936 -14.951293 5.687868 -1.895950 -24.356688 -6.880241 31.748962 3.330476 -22.819790 -1.135464 -30.412865 -55.503368 3.181643 -87.000633 5.000000 -2.627919 -7.473164 -6.047112 -45.000000 2.410342 16.427443 0.549566 87.305412 53.433460 45.863213 103.701340 -5.000000 9.778560 -1.155607 -16.444101 13.397026 -35.396702 0.556138 2.359312 71.182976 -2.272710 -7.780595 -46.448647 8.494853 2.695967 -55.823330 2.271753 23.454887 18.131176 8.227475 3.066895 -3.704284 -22.221754 5.199334 
6.627130 46.335403 -121.730789 16.449720 5.643249 -16.654791 60.865162 2.217962 -4.792384 12.285156 0.000000 -1.181641 -14.712299 5.426554 -1.795525 -24.172863 -6.908959 31.356350 3.193638 -22.851501 -1.090497 -30.729647 -55.609360 3.652170 -86.681816 5.000000 -2.921817 -7.583424 -6.083410 -45.000000 2.331970 16.407801 0.524102 87.143578 53.221447 45.857635 103.643341 -5.000000 9.696742 -1.144060 -16.414352 13.348839 -35.856213 -0.107709 2.493493 70.772446 -2.262898 -7.479714 -45.577793 8.947824 3.747508 -55.055496 1.580691 22.867294 15.883412 7.826635 2.612975 -4.839172 -21.907785 5.496551 
6.833567 46.325970 -122.318176 16.201130 5.816658 -16.493570 60.841015 2.247692 -5.047499 12.374515 -0.068344 -1.162120 -14.453074 5.147388 -1.682654 -23.974367 -6.945730 30.963713 3.056518 -22.873363 -1.041119 -31.066559 -55.713001 4.147205 -86.357506 5.000000 -3.226016 -7.683204 -6.127765 -45.000000 2.254135 16.378372 0.508371 86.991302 52.999496 45.852196 103.571236 -5.000000 9.599992 -1.129697 -16.384787 13.288525 -36.332466 -0.742719 2.800167 70.381142 -2.223847 -7.180137 -44.611214 9.400503 4.829676 -54.229347 0.864849 22.214443 13.610191 7.408028 2.151560 -5.992771 -21.675795 5.793344 
